<svg height="379.509" viewBox="0 0 312.407 284.631" width="416.542" xmlns="http://www.w3.org/2000/svg" xmlns:xlink="http://www.w3.org/1999/xlink"><defs><style>*{stroke-linecap:butt;stroke-linejoin:round}</style></defs><g id="figure_1"><path d="M0 284.631h312.407V0H0z" fill="none" id="patch_1"/><path d="M7.2 273.312h266.112V7.2H7.2z" fill="none" id="patch_2"/><g id="pane3d_1"><path d="M27.293 207.697l87.88-73.662-1.222-106.233-92.085 67.199" fill="#f2f2f2" opacity=".5" stroke="#f2f2f2" id="patch_3"/></g><g id="pane3d_2"><path d="M115.172 134.035l141.014 40.988L261.22 65.13 113.95 27.802" fill="#e6e6e6" opacity=".5" stroke="#e6e6e6" id="patch_4"/></g><g id="pane3d_3"><path d="M27.293 207.697l149.482 48.821 79.411-81.495-141.014-40.988" fill="#ececec" opacity=".5" stroke="#ececec" id="patch_5"/></g><g id="axis3d_1"><path d="M27.293 207.697l149.482 48.821" fill="none" stroke="#000" stroke-linecap="square" stroke-width=".8" id="line2d_1"/><g transform="scale(.13 -.13) rotate(-18.087 -6175.919 -2863.138)" id="text_1"><defs><path d="M6.688 21.688l6.406 33h9.031l-6.406-32.672q-.485-2.391-.703-4.094-.22-1.703-.22-2.828 0-4.156 2.532-6.438 2.547-2.265 7.188-2.265 7.218 0 12.484 4.875 5.281 4.89 6.89 13.156l6.016 30.265h8.985L48.297 0h-8.984l1.796 8.594q-3.797-4.781-9.047-7.406-5.25-2.61-11.156-2.61-7.187 0-11.187 3.938-4 3.937-4 10.968 0 1.454.234 3.657.25 2.203.734 4.547z" id="DejaVuSans-Oblique-117"/><path d="M12.406 8.297h16.11v55.625l-17.532-3.516v8.985l17.438 3.515h9.86V8.296H54.39V0H12.406z" id="DejaVuSans-49"/></defs><use transform="translate(0 .313)" xlink:href="#DejaVuSans-Oblique-117"/><use transform="matrix(.7 0 0 .7 63.379 -16.094)" xlink:href="#DejaVuSans-49"/></g><g id="Line3DCollection_1" fill="none" stroke="#b0b0b0" stroke-width=".8"><path d="M43.71 213.059l87.009-74.505-.563-106.644"/><path d="M79.334 224.694l85.072-76.348.891-107.53"/><path d="M115.884 236.631l83.011-78.26 2.417-108.426"/><path d="M153.398 248.883l80.817-80.246 4.017-109.333"/></g><g id="xtick_1"><path d="M44.467 212.41l-2.277 1.95" fill="none" stroke="#000" stroke-linecap="square" stroke-width=".8" id="line2d_2"/><g transform="matrix(.13 0 0 -.13 32.573 238.152)" id="text_2"><defs><path d="M42.484 34.188q0 14.109-3.734 21.156-3.734 7.062-10.969 7.062-7.078 0-10.89-7.062-3.797-7.047-3.797-21.157 0-13.671 3.75-20.937Q20.609 6 27.78 6q7.235 0 10.969 7 3.734 7.016 3.734 21.188zm9.422 0q0-17.297-6.25-26.704-6.25-9.39-17.875-9.39-12.062 0-18.062 9.734-6 9.75-6 26.36 0 17.03 6.14 26.578 6.157 9.547 17.922 9.547 11.625 0 17.875-9.5t6.25-26.626z" id="HelveticaWorld-Regular-48"/></defs><use xlink:href="#HelveticaWorld-Regular-48"/></g></g><g id="xtick_2"><path d="M80.075 224.028l-2.228 2" fill="none" stroke="#000" stroke-linecap="square" stroke-width=".8" id="line2d_3"/><g transform="matrix(.13 0 0 -.13 68.235 250.034)" id="text_3"><defs><path d="M35.89 0h-9.374v49.906H10.109v6.985q8.594.28 12.782 2.75Q27.094 62.109 29 70.313h6.89z" id="HelveticaWorld-Regular-49"/></defs><use xlink:href="#HelveticaWorld-Regular-49"/></g></g><g id="xtick_3"><path d="M116.609 235.948L114.432 238" fill="none" stroke="#000" stroke-linecap="square" stroke-width=".8" id="line2d_4"/><g transform="matrix(.13 0 0 -.13 104.828 262.226)" id="text_4"><defs><path d="M4.39 45.125q0 12.39 6.391 18.781 6.406 6.407 17.938 6.407 9.656 0 15.812-5.86 6.157-5.86 6.157-15.14 0-7.22-3.547-12.188-3.532-4.953-10.422-8.703l-12.11-6.64Q13.922 15.921 12.5 8.296h38.188V0H2.593q.39 9.906 4.297 16.5 3.906 6.594 12.203 11.375l12.593 7.328q5.032 2.89 7.329 5.984 2.297 3.094 2.297 8.516 0 5.375-3.766 9.031-3.75 3.672-10.156 3.672-7.078 0-10.594-4.672-3.516-4.656-3.61-12.609z" id="HelveticaWorld-Regular-50"/></defs><use xlink:href="#HelveticaWorld-Regular-50"/></g></g><g id="xtick_4"><path d="M154.104 248.182l-2.122 2.106" fill="none" stroke="#000" stroke-linecap="square" stroke-width=".8" id="line2d_5"/><g transform="matrix(.13 0 0 -.13 142.388 274.74)" id="text_5"><defs><path d="M22.406 39.984q2.203-.187 4.594-.187 6.203 0 9.781 2.86 3.594 2.859 3.594 8.656 0 4.687-3.344 7.89-3.343 3.203-9.64 3.203-6.985 0-10.235-4.11-3.234-4.093-3.437-10.983h-8.64q0 10.984 5.765 16.984 5.765 6.016 16.937 6.016 9.922 0 15.828-5.11 5.907-5.094 5.907-13.39 0-10.704-9.032-14.5v-.204q11.72-4 11.72-16.406 0-9.906-6.595-16.265-6.593-6.344-18.703-6.344-9.906 0-16.312 5.203Q4.204 8.5 3.422 21.484H12.5q.203-8.109 4-11.797Q20.313 6 27.484 6q6.938 0 11.141 3.86 4.203 3.859 4.203 9.718 0 6.406-4.016 9.672-4 3.266-12.39 3.266-2 0-4.016-.094z" id="HelveticaWorld-Regular-51"/></defs><use xlink:href="#HelveticaWorld-Regular-51"/></g></g></g><g id="axis3d_2"><path d="M256.186 175.023l-79.41 81.495" fill="none" stroke="#000" stroke-linecap="square" stroke-width=".8" id="line2d_6"/><g transform="scale(.13 -.13) rotate(45.742 3207.37 1252.367)" id="text_6"><defs><path d="M19.188 8.297h34.421V0H7.33v8.297q5.609 5.812 15.296 15.594 9.703 9.797 12.188 12.64 4.734 5.313 6.609 9 1.89 3.688 1.89 7.25 0 5.813-4.078 9.469-4.078 3.672-10.625 3.672-4.64 0-9.797-1.61-5.14-1.609-11-4.89v9.969Q13.767 71.78 18.938 73q5.188 1.219 9.485 1.219 11.328 0 18.062-5.672 6.735-5.656 6.735-15.125 0-4.5-1.688-8.531-1.672-4.016-6.125-9.485-1.218-1.422-7.765-8.187-6.532-6.766-18.453-18.922z" id="DejaVuSans-50"/></defs><use transform="translate(0 .313)" xlink:href="#DejaVuSans-Oblique-117"/><use transform="matrix(.7 0 0 .7 63.379 -16.094)" xlink:href="#DejaVuSans-50"/></g><g id="Line3DCollection_2" fill="none" stroke="#b0b0b0" stroke-width=".8"><path d="M36.844 84.07l4.698 111.684 148.157 47.502"/><path d="M59.18 67.77l3.643 110.145 146.143 45.567"/><path d="M80.6 52.14l2.668 108.638 144.17 43.748"/><path d="M101.159 37.137l1.766 107.164 142.236 42.036"/></g><g id="xtick_5"><path d="M188.45 242.856l3.748 1.201" fill="none" stroke="#000" stroke-linecap="square" stroke-width=".8" id="line2d_7"/><g transform="matrix(.13 0 0 -.13 189.636 265.898)" id="text_7"><defs><path d="M54.594 21.578H4v7.328h50.594z" id="HelveticaWorld-Regular-8722"/><path d="M19.094 0H8.687v10.594h10.407z" id="HelveticaWorld-Regular-46"/></defs><use xlink:href="#HelveticaWorld-Regular-8722"/><use x="58.594" xlink:href="#HelveticaWorld-Regular-49"/><use x="114.209" xlink:href="#HelveticaWorld-Regular-46"/><use x="141.992" xlink:href="#HelveticaWorld-Regular-48"/></g></g><g id="xtick_6"><path d="M207.737 223.099l3.692 1.151" fill="none" stroke="#000" stroke-linecap="square" stroke-width=".8" id="line2d_8"/><g transform="matrix(.13 0 0 -.13 208.645 245.832)" id="text_8"><defs><path d="M14.703 40.922q5.813 4.39 13.625 4.39 9.469 0 16.281-6.296 6.813-6.297 6.813-16.22 0-10.78-6.578-17.796-6.563-7-18.422-7-10.313 0-16.266 5.047Q4.203 8.109 3.22 17.39h9.094q.671-5.672 4.437-8.672 3.766-3 10.453-3 6.485 0 10.64 4.484Q42 14.703 42 21.688q0 7.125-4.36 11.421-4.343 4.297-11.218 4.297-7.813 0-13.047-6.687l-7.563.39 5.266 37.594h36.438v-8.5H17.672z" id="HelveticaWorld-Regular-53"/></defs><use xlink:href="#HelveticaWorld-Regular-8722"/><use x="58.594" xlink:href="#HelveticaWorld-Regular-48"/><use x="114.209" xlink:href="#HelveticaWorld-Regular-46"/><use x="141.992" xlink:href="#HelveticaWorld-Regular-53"/></g></g><g id="xtick_7"><path d="M226.226 204.158l3.638 1.104" fill="none" stroke="#000" stroke-linecap="square" stroke-width=".8" id="line2d_9"/><g transform="matrix(.13 0 0 -.13 230.677 226.595)" id="text_9"><use xlink:href="#HelveticaWorld-Regular-48"/><use x="55.615" xlink:href="#HelveticaWorld-Regular-46"/><use x="83.398" xlink:href="#HelveticaWorld-Regular-48"/></g></g><g id="xtick_8"><path d="M243.967 185.984l3.586 1.06" fill="none" stroke="#000" stroke-linecap="square" stroke-width=".8" id="line2d_10"/><g transform="matrix(.13 0 0 -.13 248.161 208.139)" id="text_10"><use xlink:href="#HelveticaWorld-Regular-48"/><use x="55.615" xlink:href="#HelveticaWorld-Regular-46"/><use x="83.398" xlink:href="#HelveticaWorld-Regular-53"/></g></g></g><g id="axis3d_3"><path d="M256.186 175.023L261.22 65.13" fill="none" stroke="#000" stroke-linecap="square" stroke-width=".8" id="line2d_11"/><g transform="scale(.13 -.13) rotate(87.378 1644.99 755.37)" id="text_11"><defs><path d="M36.719 67.438L48.829 0h-9.517l-7.468 40.438L5.125 0h-9.516l34.125 52.438-1.703 9.671q-1.078 6.157-6.297 6.157h-4.687l1.453 7.718 5.719-.109q10.984-.14 12.5-8.438z" id="DejaVuSans-Oblique-955"/></defs><use transform="translate(0 .016)" xlink:href="#DejaVuSans-Oblique-955"/></g><g id="Line3DCollection_3" fill="none" stroke="#b0b0b0" stroke-width=".8"><path d="M256.97 157.904l-141.988-40.447-88.533 72.71"/><path d="M257.836 139L114.771 99.163l-89.255 71.634"/><path d="M258.715 119.805L114.558 80.6l-89.99 70.518"/><path d="M259.608 100.311L114.34 61.763 23.606 131.12"/><path d="M260.514 80.512L114.121 42.645l-91.494 68.153"/></g><g id="xtick_9"><path d="M255.778 157.564l3.58 1.02" fill="none" stroke="#000" stroke-linecap="square" stroke-width=".8" id="line2d_12"/><g transform="matrix(.13 0 0 -.13 262.5 164.664)" id="text_12"><defs><path d="M10.594 24.703h22.61v31.89h-.188zM42 17.093V0h-8.797v17.094H2.484v8.593L34.72 70.314H42v-45.61h10.297v-7.61z" id="HelveticaWorld-Regular-52"/></defs><use xlink:href="#HelveticaWorld-Regular-8722"/><use x="58.594" xlink:href="#HelveticaWorld-Regular-48"/><use x="114.209" xlink:href="#HelveticaWorld-Regular-46"/><use x="141.992" xlink:href="#HelveticaWorld-Regular-52"/></g></g><g id="xtick_10"><path d="M256.634 138.666l3.608 1.004" fill="none" stroke="#000" stroke-linecap="square" stroke-width=".8" id="line2d_13"/><g transform="matrix(.13 0 0 -.13 263.503 145.798)" id="text_13"><use xlink:href="#HelveticaWorld-Regular-8722"/><use x="58.594" xlink:href="#HelveticaWorld-Regular-48"/><use x="114.209" xlink:href="#HelveticaWorld-Regular-46"/><use x="141.992" xlink:href="#HelveticaWorld-Regular-50"/></g></g><g id="xtick_11"><path d="M257.504 119.475l3.636.99" fill="none" stroke="#000" stroke-linecap="square" stroke-width=".8" id="line2d_14"/><g transform="matrix(.13 0 0 -.13 268.33 126.642)" id="text_14"><use xlink:href="#HelveticaWorld-Regular-48"/><use x="55.615" xlink:href="#HelveticaWorld-Regular-46"/><use x="83.398" xlink:href="#HelveticaWorld-Regular-48"/></g></g><g id="xtick_12"><path d="M258.387 99.987l3.666.973" fill="none" stroke="#000" stroke-linecap="square" stroke-width=".8" id="line2d_15"/><g transform="matrix(.13 0 0 -.13 269.365 107.19)" id="text_15"><use xlink:href="#HelveticaWorld-Regular-48"/><use x="55.615" xlink:href="#HelveticaWorld-Regular-46"/><use x="83.398" xlink:href="#HelveticaWorld-Regular-50"/></g></g><g id="xtick_13"><path d="M259.283 80.193l3.696.956" fill="none" stroke="#000" stroke-linecap="square" stroke-width=".8" id="line2d_16"/><g transform="matrix(.13 0 0 -.13 270.415 87.433)" id="text_16"><use xlink:href="#HelveticaWorld-Regular-48"/><use x="55.615" xlink:href="#HelveticaWorld-Regular-46"/><use x="83.398" xlink:href="#HelveticaWorld-Regular-52"/></g></g></g><g id="axes_1"><g id="line2d_17"><path clip-path="url(#pad3d8fc8f6)" d="M98.145 110.779l22.278-30.387 35.665-26.404 23.846-1.759 13.56 7.194 12.906 26.27 4.55 31.275.67 28.3-1.757 23.467-3.586 18.54-4.727 13.556-4.807 8.88-5.965 7.422-13.856 8.903-19.926 1.954-27.078-6.966-33.946-11.443-23.517-9.314-3.02-6.63-.583-8.397 1.092-9.155 1.99-8.578 3.238-10.203 9.517-22.274 16.278-28.704 26.368-33.21 20.544-15.52 29.035-5.936 16.346 7.543 14.45 32.468 3.917 39.319-1.483 35.5-2.307 14.247-2.783 10.753-4.235 10.926-5.914 9.92-7.23 7.614-16.18 7.57-22.652-.866-30.232-9.714-34.791-10.557-11.414-6.176-3.594-12.8.697-8.74 1.713-8.446 3.071-10.389 4.361-11.524 7.7-16.607 18.188-30.754L134.085 67l22.612-13.22" fill="none" stroke="#1f77b4" stroke-linecap="square" stroke-width="1.5"/><defs><path d="M0 1.5a1.5 1.5 0 100-3 1.5 1.5 0 000 3z" id="m9b4376b99c" stroke="#1f77b4"/></defs><g clip-path="url(#pad3d8fc8f6)" fill="#1f77b4" stroke="#1f77b4"><use x="98.145" xlink:href="#m9b4376b99c" y="110.779"/><use x="120.423" xlink:href="#m9b4376b99c" y="80.392"/><use x="156.088" xlink:href="#m9b4376b99c" y="53.988"/><use x="179.934" xlink:href="#m9b4376b99c" y="52.229"/><use x="193.494" xlink:href="#m9b4376b99c" y="59.423"/><use x="206.4" xlink:href="#m9b4376b99c" y="85.693"/><use x="210.949" xlink:href="#m9b4376b99c" y="116.968"/><use x="211.62" xlink:href="#m9b4376b99c" y="145.269"/><use x="209.863" xlink:href="#m9b4376b99c" y="168.735"/><use x="206.277" xlink:href="#m9b4376b99c" y="187.275"/><use x="201.55" xlink:href="#m9b4376b99c" y="200.831"/><use x="196.743" xlink:href="#m9b4376b99c" y="209.711"/><use x="190.778" xlink:href="#m9b4376b99c" y="217.133"/><use x="176.922" xlink:href="#m9b4376b99c" y="226.036"/><use x="156.996" xlink:href="#m9b4376b99c" y="227.99"/><use x="129.918" xlink:href="#m9b4376b99c" y="221.024"/><use x="95.972" xlink:href="#m9b4376b99c" y="209.581"/><use x="72.455" xlink:href="#m9b4376b99c" y="200.267"/><use x="69.435" xlink:href="#m9b4376b99c" y="193.637"/><use x="68.852" xlink:href="#m9b4376b99c" y="185.24"/><use x="69.944" xlink:href="#m9b4376b99c" y="176.085"/><use x="71.934" xlink:href="#m9b4376b99c" y="167.507"/><use x="75.172" xlink:href="#m9b4376b99c" y="157.304"/><use x="84.689" xlink:href="#m9b4376b99c" y="135.03"/><use x="100.967" xlink:href="#m9b4376b99c" y="106.326"/><use x="127.335" xlink:href="#m9b4376b99c" y="73.116"/><use x="147.879" xlink:href="#m9b4376b99c" y="57.596"/><use x="176.914" xlink:href="#m9b4376b99c" y="51.66"/><use x="193.26" xlink:href="#m9b4376b99c" y="59.203"/><use x="207.711" xlink:href="#m9b4376b99c" y="91.671"/><use x="211.627" xlink:href="#m9b4376b99c" y="130.99"/><use x="210.144" xlink:href="#m9b4376b99c" y="166.491"/><use x="207.837" xlink:href="#m9b4376b99c" y="180.737"/><use x="205.054" xlink:href="#m9b4376b99c" y="191.49"/><use x="200.819" xlink:href="#m9b4376b99c" y="202.416"/><use x="194.905" xlink:href="#m9b4376b99c" y="212.335"/><use x="187.675" xlink:href="#m9b4376b99c" y="219.95"/><use x="171.495" xlink:href="#m9b4376b99c" y="227.52"/><use x="148.843" xlink:href="#m9b4376b99c" y="226.654"/><use x="118.611" xlink:href="#m9b4376b99c" y="216.94"/><use x="83.82" xlink:href="#m9b4376b99c" y="206.383"/><use x="72.406" xlink:href="#m9b4376b99c" y="200.207"/><use x="68.812" xlink:href="#m9b4376b99c" y="187.406"/><use x="69.509" xlink:href="#m9b4376b99c" y="178.666"/><use x="71.222" xlink:href="#m9b4376b99c" y="170.221"/><use x="74.293" xlink:href="#m9b4376b99c" y="159.832"/><use x="78.654" xlink:href="#m9b4376b99c" y="148.308"/><use x="86.353" xlink:href="#m9b4376b99c" y="131.701"/><use x="104.542" xlink:href="#m9b4376b99c" y="100.947"/><use x="134.085" xlink:href="#m9b4376b99c" y="67"/><use x="156.697" xlink:href="#m9b4376b99c" y="53.78"/></g></g></g></g><defs><clipPath id="pad3d8fc8f6"><path d="M7.2 7.2h266.112v266.112H7.2z"/></clipPath></defs></svg>