<svg height="420.744" viewBox="0 0 427.459 315.558" width="569.946" xmlns="http://www.w3.org/2000/svg" xmlns:xlink="http://www.w3.org/1999/xlink"><defs><style>*{stroke-linecap:butt;stroke-linejoin:round}</style></defs><g id="figure_1"><path d="M0 315.558h427.46V0H0z" fill="none" id="patch_1"/><g id="axes_1"><path d="M63.14 273.312h357.12V7.2H63.14z" fill="none" id="patch_2"/><g id="matplotlib.axis_1"><g id="xtick_1"><g id="line2d_1"><defs><path d="M0 0v3.5" id="m0361a13733" stroke="#000" stroke-width=".8"/></defs><use x="79.372" xlink:href="#m0361a13733" y="273.312" stroke="#000" stroke-width=".8"/></g><g transform="matrix(.13 0 0 -.13 75.757 289.644)" id="text_1"><defs><path d="M42.484 34.188q0 14.109-3.734 21.156-3.734 7.062-10.969 7.062-7.078 0-10.89-7.062-3.797-7.047-3.797-21.157 0-13.671 3.75-20.937Q20.609 6 27.78 6q7.235 0 10.969 7 3.734 7.016 3.734 21.188zm9.422 0q0-17.297-6.25-26.704-6.25-9.39-17.875-9.39-12.062 0-18.062 9.734-6 9.75-6 26.36 0 17.03 6.14 26.578 6.157 9.547 17.922 9.547 11.625 0 17.875-9.5t6.25-26.626z" id="HelveticaWorld-Regular-48"/></defs><use xlink:href="#HelveticaWorld-Regular-48"/></g></g><g id="xtick_2"><use x="139.355" xlink:href="#m0361a13733" y="273.312" stroke="#000" stroke-width=".8" id="line2d_2"/><g transform="matrix(.13 0 0 -.13 135.74 289.644)" id="text_2"><defs><path d="M4.39 45.125q0 12.39 6.391 18.781 6.406 6.407 17.938 6.407 9.656 0 15.812-5.86 6.157-5.86 6.157-15.14 0-7.22-3.547-12.188-3.532-4.953-10.422-8.703l-12.11-6.64Q13.922 15.921 12.5 8.296h38.188V0H2.593q.39 9.906 4.297 16.5 3.906 6.594 12.203 11.375l12.593 7.328q5.032 2.89 7.329 5.984 2.297 3.094 2.297 8.516 0 5.375-3.766 9.031-3.75 3.672-10.156 3.672-7.078 0-10.594-4.672-3.516-4.656-3.61-12.609z" id="HelveticaWorld-Regular-50"/></defs><use xlink:href="#HelveticaWorld-Regular-50"/></g></g><g id="xtick_3"><use x="199.337" xlink:href="#m0361a13733" y="273.312" stroke="#000" stroke-width=".8" id="line2d_3"/><g transform="matrix(.13 0 0 -.13 195.723 289.644)" id="text_3"><defs><path d="M10.594 24.703h22.61v31.89h-.188zM42 17.093V0h-8.797v17.094H2.484v8.593L34.72 70.314H42v-45.61h10.297v-7.61z" id="HelveticaWorld-Regular-52"/></defs><use xlink:href="#HelveticaWorld-Regular-52"/></g></g><g id="xtick_4"><use x="259.32" xlink:href="#m0361a13733" y="273.312" stroke="#000" stroke-width=".8" id="line2d_4"/><g transform="matrix(.13 0 0 -.13 255.705 289.644)" id="text_4"><defs><path d="M14.11 21.578q0-6.875 4.093-11.234Q22.313 6 28.906 6q6.297 0 10.032 4.438 3.734 4.453 3.734 11.687 0 6.297-3.688 10.547-3.687 4.25-10.468 4.25-6.594 0-10.5-4.156-3.907-4.157-3.907-11.188zM41.702 51.61q-.984 5.375-3.984 8.078-3 2.72-8.125 2.72-8.11 0-12.36-7.923-4.25-7.906-4.343-18.109l.203-.188q5.61 8.641 16.687 8.641 8.844 0 15.438-5.86 6.593-5.859 6.593-16.452 0-10.5-6.25-17.47-6.25-6.952-16.843-6.952-12.219 0-18.563 8.687-6.344 8.703-6.344 25.938 0 16.593 6.485 27.093 6.5 10.5 19.484 10.5 8.407 0 14.219-5.015 5.813-5 6.297-13.688z" id="HelveticaWorld-Regular-54"/></defs><use xlink:href="#HelveticaWorld-Regular-54"/></g></g><g id="xtick_5"><use x="319.302" xlink:href="#m0361a13733" y="273.312" stroke="#000" stroke-width=".8" id="line2d_5"/><g transform="matrix(.13 0 0 -.13 315.688 289.644)" id="text_5"><defs><path d="M27.594 40.578q5.422 0 8.953 3.094 3.547 3.11 3.547 8.234 0 4.594-3.407 7.547-3.39 2.953-9.687 2.953-5.61 0-8.672-3.11-3.047-3.093-3.047-7.874 0-5.125 3.813-7.984 3.812-2.86 8.5-2.86zm.093-7.562q-6.78 0-10.64-3.766-3.86-3.766-3.86-9.234 0-6.297 3.907-10.157Q21 6 28.219 6q6.406 0 10.234 3.86 3.828 3.859 3.828 10.265 0 5.469-3.828 9.172-3.828 3.719-10.766 3.719zM49.22 52.203q0-10.594-9.032-14.797 6.204-2.781 8.86-7.36 2.656-4.562 2.656-9.733 0-10.016-6.453-16.125-6.438-6.094-17.375-6.094-9.563 0-16.813 5.25-7.25 5.25-7.25 17.062 0 11.922 11.907 16.907-9.516 3.796-9.516 13.671 0 8.297 5.64 13.813 5.641 5.516 15.641 5.516 10.016 0 15.875-5.204 5.86-5.203 5.86-12.906z" id="HelveticaWorld-Regular-56"/></defs><use xlink:href="#HelveticaWorld-Regular-56"/></g></g><g id="xtick_6"><use x="379.285" xlink:href="#m0361a13733" y="273.312" stroke="#000" stroke-width=".8" id="line2d_6"/><g transform="matrix(.13 0 0 -.13 372.055 289.644)" id="text_6"><defs><path d="M35.89 0h-9.374v49.906H10.109v6.985q8.594.28 12.782 2.75Q27.094 62.109 29 70.313h6.89z" id="HelveticaWorld-Regular-49"/></defs><use xlink:href="#HelveticaWorld-Regular-49"/><use x="55.615" xlink:href="#HelveticaWorld-Regular-48"/></g></g><g transform="matrix(.13 0 0 -.13 234.484 305.667)" id="text_7"><defs><path d="M6.688 21.688l6.406 33h9.031l-6.406-32.672q-.485-2.391-.703-4.094-.22-1.703-.22-2.828 0-4.156 2.532-6.438 2.547-2.265 7.188-2.265 7.218 0 12.484 4.875 5.281 4.89 6.89 13.156l6.016 30.265h8.985L48.297 0h-8.984l1.796 8.594q-3.797-4.781-9.047-7.406-5.25-2.61-11.156-2.61-7.187 0-11.187 3.938-4 3.937-4 10.968 0 1.454.234 3.657.25 2.203.734 4.547z" id="DejaVuSans-Oblique-117"/><path d="M12.406 8.297h16.11v55.625l-17.532-3.516v8.985l17.438 3.515h9.86V8.296H54.39V0H12.406z" id="DejaVuSans-49"/></defs><use transform="translate(0 .313)" xlink:href="#DejaVuSans-Oblique-117"/><use transform="matrix(.7 0 0 .7 63.379 -16.094)" xlink:href="#DejaVuSans-49"/></g></g><g id="matplotlib.axis_2"><g id="ytick_1"><g id="line2d_7"><defs><path d="M0 0h-3.5" id="m0e59bbb0c5" stroke="#000" stroke-width=".8"/></defs><use x="63.139" xlink:href="#m0e59bbb0c5" y="262.469" stroke="#000" stroke-width=".8"/></g><g transform="matrix(.13 0 0 -.13 23.223 267.134)" id="text_8"><defs><path d="M54.594 21.578H4v7.328h50.594z" id="HelveticaWorld-Regular-8722"/><path d="M19.094 0H8.687v10.594h10.407z" id="HelveticaWorld-Regular-46"/></defs><use xlink:href="#HelveticaWorld-Regular-8722"/><use x="58.594" xlink:href="#HelveticaWorld-Regular-49"/><use x="114.209" xlink:href="#HelveticaWorld-Regular-46"/><use x="141.992" xlink:href="#HelveticaWorld-Regular-48"/><use x="197.607" xlink:href="#HelveticaWorld-Regular-48"/></g></g><g id="ytick_2"><use x="63.139" xlink:href="#m0e59bbb0c5" y="232.068" stroke="#000" stroke-width=".8" id="line2d_8"/><g transform="matrix(.13 0 0 -.13 23.223 236.734)" id="text_9"><defs><path d="M3.719 68.797h48.578v-7.719Q42.28 50.875 33.984 33.484 25.687 16.11 23.391 0h-9.672q1.469 13.281 9.719 30.531 8.25 17.266 18.953 29.672H3.719z" id="HelveticaWorld-Regular-55"/><path d="M14.703 40.922q5.813 4.39 13.625 4.39 9.469 0 16.281-6.296 6.813-6.297 6.813-16.22 0-10.78-6.578-17.796-6.563-7-18.422-7-10.313 0-16.266 5.047Q4.203 8.109 3.22 17.39h9.094q.671-5.672 4.437-8.672 3.766-3 10.453-3 6.485 0 10.64 4.484Q42 14.703 42 21.688q0 7.125-4.36 11.421-4.343 4.297-11.218 4.297-7.813 0-13.047-6.687l-7.563.39 5.266 37.594h36.438v-8.5H17.672z" id="HelveticaWorld-Regular-53"/></defs><use xlink:href="#HelveticaWorld-Regular-8722"/><use x="58.594" xlink:href="#HelveticaWorld-Regular-48"/><use x="114.209" xlink:href="#HelveticaWorld-Regular-46"/><use x="141.992" xlink:href="#HelveticaWorld-Regular-55"/><use x="197.607" xlink:href="#HelveticaWorld-Regular-53"/></g></g><g id="ytick_3"><use x="63.139" xlink:href="#m0e59bbb0c5" y="201.668" stroke="#000" stroke-width=".8" id="line2d_9"/><g transform="matrix(.13 0 0 -.13 23.223 206.334)" id="text_10"><use xlink:href="#HelveticaWorld-Regular-8722"/><use x="58.594" xlink:href="#HelveticaWorld-Regular-48"/><use x="114.209" xlink:href="#HelveticaWorld-Regular-46"/><use x="141.992" xlink:href="#HelveticaWorld-Regular-53"/><use x="197.607" xlink:href="#HelveticaWorld-Regular-48"/></g></g><g id="ytick_4"><use x="63.139" xlink:href="#m0e59bbb0c5" y="171.268" stroke="#000" stroke-width=".8" id="line2d_10"/><g transform="matrix(.13 0 0 -.13 23.223 175.934)" id="text_11"><use xlink:href="#HelveticaWorld-Regular-8722"/><use x="58.594" xlink:href="#HelveticaWorld-Regular-48"/><use x="114.209" xlink:href="#HelveticaWorld-Regular-46"/><use x="141.992" xlink:href="#HelveticaWorld-Regular-50"/><use x="197.607" xlink:href="#HelveticaWorld-Regular-53"/></g></g><g id="ytick_5"><use x="63.139" xlink:href="#m0e59bbb0c5" y="140.868" stroke="#000" stroke-width=".8" id="line2d_11"/><g transform="matrix(.13 0 0 -.13 30.84 145.534)" id="text_12"><use xlink:href="#HelveticaWorld-Regular-48"/><use x="55.615" xlink:href="#HelveticaWorld-Regular-46"/><use x="83.398" xlink:href="#HelveticaWorld-Regular-48"/><use x="139.014" xlink:href="#HelveticaWorld-Regular-48"/></g></g><g id="ytick_6"><use x="63.139" xlink:href="#m0e59bbb0c5" y="110.468" stroke="#000" stroke-width=".8" id="line2d_12"/><g transform="matrix(.13 0 0 -.13 30.84 115.133)" id="text_13"><use xlink:href="#HelveticaWorld-Regular-48"/><use x="55.615" xlink:href="#HelveticaWorld-Regular-46"/><use x="83.398" xlink:href="#HelveticaWorld-Regular-50"/><use x="139.014" xlink:href="#HelveticaWorld-Regular-53"/></g></g><g id="ytick_7"><use x="63.139" xlink:href="#m0e59bbb0c5" y="80.067" stroke="#000" stroke-width=".8" id="line2d_13"/><g transform="matrix(.13 0 0 -.13 30.84 84.733)" id="text_14"><use xlink:href="#HelveticaWorld-Regular-48"/><use x="55.615" xlink:href="#HelveticaWorld-Regular-46"/><use x="83.398" xlink:href="#HelveticaWorld-Regular-53"/><use x="139.014" xlink:href="#HelveticaWorld-Regular-48"/></g></g><g id="ytick_8"><use x="63.139" xlink:href="#m0e59bbb0c5" y="49.667" stroke="#000" stroke-width=".8" id="line2d_14"/><g transform="matrix(.13 0 0 -.13 30.84 54.333)" id="text_15"><use xlink:href="#HelveticaWorld-Regular-48"/><use x="55.615" xlink:href="#HelveticaWorld-Regular-46"/><use x="83.398" xlink:href="#HelveticaWorld-Regular-55"/><use x="139.014" xlink:href="#HelveticaWorld-Regular-53"/></g></g><g id="ytick_9"><use x="63.139" xlink:href="#m0e59bbb0c5" y="19.267" stroke="#000" stroke-width=".8" id="line2d_15"/><g transform="matrix(.13 0 0 -.13 30.84 23.933)" id="text_16"><use xlink:href="#HelveticaWorld-Regular-49"/><use x="55.615" xlink:href="#HelveticaWorld-Regular-46"/><use x="83.398" xlink:href="#HelveticaWorld-Regular-48"/><use x="139.014" xlink:href="#HelveticaWorld-Regular-48"/></g></g><g transform="matrix(0 -.13 -.13 0 16.532 144.156)" id="text_17"><defs><path d="M36.719 67.438L48.829 0h-9.517l-7.468 40.438L5.125 0h-9.516l34.125 52.438-1.703 9.671q-1.078 6.157-6.297 6.157h-4.687l1.453 7.718 5.719-.109q10.984-.14 12.5-8.438z" id="DejaVuSans-Oblique-955"/></defs><use transform="translate(0 .016)" xlink:href="#DejaVuSans-Oblique-955"/></g></g><g id="line2d_16"><path clip-path="url(#pdaf5335edc)" d="M79.372 140.868L90.09 98.335l26.816-72.92 12.081-5.724 8.826 8.15 16.615 40.5 20.89 79.515 22.78 81.673 10.014 22.38 8.283 9.307 13.073-3.903 24.017-60.532 29.463-114.705 12.256-37.455 10.492-19.644 8.572-5.681 12.972 10.08 23.116 65.331 29.79 115.215 12.828 35.297 11.054 15.484" fill="none" stroke="#1f77b4" stroke-linecap="square" stroke-width="1.5"/><defs><path d="M0 1.5a1.5 1.5 0 100-3 1.5 1.5 0 000 3z" id="md89d549787" stroke="#1f77b4"/></defs><g clip-path="url(#pdaf5335edc)" fill="#1f77b4" stroke="#1f77b4"><use x="79.372" xlink:href="#md89d549787" y="140.868"/><use x="90.089" xlink:href="#md89d549787" y="98.335"/><use x="116.905" xlink:href="#md89d549787" y="25.415"/><use x="128.986" xlink:href="#md89d549787" y="19.691"/><use x="137.812" xlink:href="#md89d549787" y="27.841"/><use x="154.427" xlink:href="#md89d549787" y="68.342"/><use x="175.317" xlink:href="#md89d549787" y="147.856"/><use x="198.096" xlink:href="#md89d549787" y="229.529"/><use x="208.111" xlink:href="#md89d549787" y="251.908"/><use x="216.394" xlink:href="#md89d549787" y="261.216"/><use x="229.467" xlink:href="#md89d549787" y="257.313"/><use x="253.484" xlink:href="#md89d549787" y="196.781"/><use x="282.947" xlink:href="#md89d549787" y="82.076"/><use x="295.203" xlink:href="#md89d549787" y="44.621"/><use x="305.695" xlink:href="#md89d549787" y="24.977"/><use x="314.267" xlink:href="#md89d549787" y="19.296"/><use x="327.239" xlink:href="#md89d549787" y="29.376"/><use x="350.355" xlink:href="#md89d549787" y="94.707"/><use x="380.145" xlink:href="#md89d549787" y="209.922"/><use x="392.973" xlink:href="#md89d549787" y="245.219"/><use x="404.027" xlink:href="#md89d549787" y="260.703"/></g></g><path d="M63.14 273.312V7.2" fill="none" stroke="#000" stroke-linecap="square" stroke-width=".8" id="patch_3"/><path d="M420.26 273.312V7.2" fill="none" stroke="#000" stroke-linecap="square" stroke-width=".8" id="patch_4"/><path d="M63.14 273.312h357.12" fill="none" stroke="#000" stroke-linecap="square" stroke-width=".8" id="patch_5"/><path d="M63.14 7.2h357.12" fill="none" stroke="#000" stroke-linecap="square" stroke-width=".8" id="patch_6"/></g></g><defs><clipPath id="pdaf5335edc"><path d="M63.139 7.2h357.12v266.112H63.139z"/></clipPath></defs></svg>